<?xml version="1.0" encoding="UTF-8" standalone="no"?>
<svg
   xmlns:dc="http://purl.org/dc/elements/1.1/"
   xmlns:cc="http://creativecommons.org/ns#"
   xmlns:rdf="http://www.w3.org/1999/02/22-rdf-syntax-ns#"
   xmlns:svg="http://www.w3.org/2000/svg"
   xmlns="http://www.w3.org/2000/svg"
   xmlns:sodipodi="http://sodipodi.sourceforge.net/DTD/sodipodi-0.dtd"
   xmlns:inkscape="http://www.inkscape.org/namespaces/inkscape"
   version="1.1"
   id="Layer_1"
   x="0px"
   y="0px"
   width="200"
   height="200"
   viewBox="0 0 200 200"
   enable-background="new 0 0 512 512"
   xml:space="preserve"
   sodipodi:docname="rocket.svg"
   inkscape:version="0.92.5 (2060ec1f9f, 2020-04-08)"><metadata
   id="metadata1487"><rdf:RDF><cc:Work
       rdf:about=""><dc:format>image/svg+xml</dc:format><dc:type
         rdf:resource="http://purl.org/dc/dcmitype/StillImage" /><dc:title /></cc:Work></rdf:RDF></metadata><defs
   id="defs1485"><inkscape:path-effect
   effect="fillet_chamfer"
   id="path-effect2094"
   is_visible="true"
   lpeversion="1"
   satellites_param="F,0,0,1,0,10,0,1 @ F,0,0,1,0,10,0,1 @ F,0,0,1,0,10,0,1 @ F,0,0,1,0,10,0,1"
   unit="px"
   method="auto"
   mode="F"
   radius="10"
   chamfer_steps="1"
   flexible="false"
   use_knot_distance="true"
   apply_no_radius="true"
   apply_with_radius="true"
   only_selected="false"
   hide_knots="false" />
	
	

		
		
	
			
		</defs><sodipodi:namedview
   pagecolor="#ffffff"
   bordercolor="#666666"
   borderopacity="1"
   objecttolerance="10"
   gridtolerance="10"
   guidetolerance="10"
   inkscape:pageopacity="0"
   inkscape:pageshadow="2"
   inkscape:window-width="1306"
   inkscape:window-height="704"
   id="namedview1483"
   showgrid="false"
   inkscape:document-rotation="0"
   inkscape:zoom="1.96875"
   inkscape:cx="11.794455"
   inkscape:cy="96.717688"
   inkscape:window-x="60"
   inkscape:window-y="27"
   inkscape:window-maximized="0"
   inkscape:current-layer="Layer_1" />
<path
   style="color:#000000;font-style:normal;font-variant:normal;font-weight:normal;font-stretch:normal;font-size:medium;line-height:normal;font-family:sans-serif;font-variant-ligatures:normal;font-variant-position:normal;font-variant-caps:normal;font-variant-numeric:normal;font-variant-alternates:normal;font-feature-settings:normal;text-indent:0;text-align:start;text-decoration:none;text-decoration-line:none;text-decoration-style:solid;text-decoration-color:#000000;letter-spacing:normal;word-spacing:normal;text-transform:none;writing-mode:lr-tb;direction:ltr;text-orientation:mixed;dominant-baseline:auto;baseline-shift:baseline;text-anchor:start;white-space:normal;shape-padding:0;clip-rule:nonzero;display:inline;overflow:visible;visibility:visible;opacity:1;isolation:auto;mix-blend-mode:normal;color-interpolation:sRGB;color-interpolation-filters:linearRGB;solid-color:#000000;solid-opacity:1;vector-effect:none;fill:#0b0c0c;fill-opacity:1;fill-rule:nonzero;stroke:none;stroke-linecap:butt;stroke-linejoin:miter;stroke-miterlimit:4;stroke-dasharray:none;stroke-dashoffset:0;stroke-opacity:1;color-rendering:auto;image-rendering:auto;shape-rendering:auto;text-rendering:auto;enable-background:accumulate"
   d="M 182.21484,2.0058594 C 172.02017,1.3526896 162.18615,3.1128517 153.23633,4.7480469 l -0.0996,0.017578 -0.0977,0.021484 C 124.95418,10.701124 97.524103,23.888973 77.433594,45.607422 72.441034,45.06919 67.438359,44.538337 62.396484,44.099609 l -0.06445,-0.0039 -0.06641,-0.0059 C 49.141588,43.17807 38.358864,47.524634 31.138672,58.513672 l -0.01758,0.02539 -0.01563,0.02539 C 24.454948,68.867592 18.007207,79.2253 11.496087,89.460937 c -0.0016,0.0025 -0.0023,0.0053 -0.0039,0.0078 -5.8884162,9.034529 -3.903563,18.935613 5.970703,22.880863 l 0.09961,0.041 0.101562,0.0371 c 5.624168,2.06096 10.118224,1.35526 12.523438,1.61719 l 0.08008,0.008 0.07813,0.008 c 5.870069,0.51315 11.429668,0.75974 16.726563,1.16797 1.675862,9.49525 6.099379,18.58662 13.708984,25.21875 6.250493,5.58318 15.946566,10.91247 23.921875,12.23437 0.691757,8.63668 1.287292,17.31131 2.082031,26.13281 l 0.0059,0.0703 0.0078,0.0703 c 1.334439,12.22715 13.143928,17.02164 23.615237,10.44531 l 0.0527,-0.0312 0.0508,-0.0332 c 10.52433,-6.85048 20.86488,-13.87425 31.19725,-20.77344 l 0.0566,-0.0391 0.0547,-0.0371 c 10.24419,-7.10976 14.37353,-17.1197 13.84375,-29.69141 l -0.004,-0.10742 -0.008,-0.10547 c -0.4029,-5.71655 -1.02195,-11.18004 -1.55078,-16.59765 21.66832,-20.26206 35.02665,-47.779762 40.82031,-76.085945 l 0.0156,-0.08398 0.0156,-0.08398 c 2.12709,-11.751631 4.45203,-23.082379 1.03907,-36.7109378 l -1.09766,-4.3847656 -4.39062,-1.078125 c -3.4591,-0.8482852 -4.89671,-1.333058 -8.29493,-1.5507812 z m -0.96679,13.0078126 c 0.99971,0.05767 1.93227,0.302027 2.91015,0.419922 1.04384,8.500093 -0.1937,17.85154 -1.94336,27.529297 -5.51807,26.892397 -18.44247,52.664703 -38.84375,70.488279 l -2.87109,2.50781 0.33398,3.79883 c 0.59691,6.78377 1.3908,13.33687 1.84571,19.71094 0.28338,7.11469 -3.50208,14.58972 -9.39649,18.68555 -10.32936,6.89795 -20.55781,13.84201 -30.84961,20.54297 -0.42791,0.26175 -2.659275,-0.87045 -2.720699,-1.36524 -0.947467,-10.54742 -1.589681,-21.27561 -2.558594,-32.12305 l -0.597656,-6.70117 -6.728516,-0.1289 c -7.037426,-0.13515 -14.068671,-2.65288 -19.074219,-7.13282 l -0.04297,-0.0371 -0.04297,-0.0371 c -5.79085,-5.02811 -9.187002,-13.06514 -9.460938,-21.15821 l -0.21289,-6.3457 -6.294922,-0.83594 c -8.067669,-1.07131 -15.922152,-1.09201 -23.046875,-1.71484 l 0.158203,0.0156 c -4.623963,-0.50356 -7.516236,-0.35662 -8.818359,-0.76953 -0.518813,-0.28461 -1.209018,-2.282968 -0.933594,-2.705077 l 0.02344,-0.03711 0.02344,-0.03711 C 28.673996,87.259149 35.110322,76.922592 41.675781,66.75 l 0.0039,-0.0039 c 4.100826,-6.237399 12.083636,-10.198732 19.527343,-9.689453 5.739247,0.500652 11.497548,1.095542 17.277344,1.730468 l -1.40625,-0.292968 c 3.452339,1.072619 7.765995,-0.992611 9.089844,-2.28125 1.323849,-1.28864 1.756425,-1.820311 0.96875,-1.126953 l 0.316406,-0.279297 0.283203,-0.3125 C 105.26222,35.169553 130.13479,22.955774 156.05078,17.484375 c 8.76555,-1.599417 17.30849,-2.925801 25.19727,-2.470703 z m -40.83789,21.398437 c -2.38361,-0.265958 -4.81742,-0.216398 -7.24219,0.148438 -13.59419,1.773315 -22.00127,11.499496 -22.05469,25.246094 -0.64645,15.453321 10.01932,26.664854 25.48438,26.667968 11.28234,0.413316 19.56949,-4.216322 24.16015,-14.339843 4.53785,-9.696762 5.11566,-19.241657 -1.76367,-27.509766 -4.6548,-5.820922 -11.38926,-9.410117 -18.58398,-10.212891 z m -1.75,12.953125 c 3.33863,0.427745 6.66054,2.150143 8.65234,4.660157 l 0.0625,0.08008 0.0644,0.07617 c 2.94576,3.51437 3.69319,9.438492 1.72461,13.621093 l -0.0254,0.05664 -0.0254,0.05664 c -1.98862,4.412733 -7.34333,7.795333 -12.06836,7.582031 l -0.18945,-0.0098 -0.18945,0.002 c -6.3508,0.03483 -12.88774,-6.784825 -12.58008,-13.132812 l 0.01,-0.197266 -0.002,-0.199218 c -0.025,-5.73718 5.36416,-11.828319 11.06836,-12.544922 l 0.10156,-0.01172 0.10156,-0.01563 c 1.06771,-0.163756 2.18205,-0.166019 3.29493,-0.02344 z"
   id="path1470"
   inkscape:connector-curvature="0"
   sodipodi:nodetypes="sccccccccccccccccccccccccccccccccccccccccsssccccccccccccccccccccccccccccsccccsssccccsscccccccccccccccscc" /><path
   style="color:#000000;font-style:normal;font-variant:normal;font-weight:normal;font-stretch:normal;font-size:medium;line-height:normal;font-family:sans-serif;font-variant-ligatures:normal;font-variant-position:normal;font-variant-caps:normal;font-variant-numeric:normal;font-variant-alternates:normal;font-feature-settings:normal;text-indent:0;text-align:start;text-decoration:none;text-decoration-line:none;text-decoration-style:solid;text-decoration-color:#000000;letter-spacing:normal;word-spacing:normal;text-transform:none;writing-mode:lr-tb;direction:ltr;text-orientation:mixed;dominant-baseline:auto;baseline-shift:baseline;text-anchor:start;white-space:normal;shape-padding:0;clip-rule:nonzero;display:inline;overflow:visible;visibility:visible;isolation:auto;mix-blend-mode:normal;color-interpolation:sRGB;color-interpolation-filters:linearRGB;solid-color:#000000;solid-opacity:1;vector-effect:none;fill:#0b0c0c;fill-opacity:1;fill-rule:nonzero;stroke:none;stroke-width:15;stroke-linecap:butt;stroke-linejoin:round;stroke-miterlimit:4;stroke-dasharray:none;stroke-dashoffset:0;stroke-opacity:1;color-rendering:auto;image-rendering:auto;shape-rendering:auto;text-rendering:auto;enable-background:accumulate"
   d="m 48.596903,151.9669 -0.697823,-0.69784 c -1.88858,-1.88863 -4.950648,-1.88859 -6.839274,5e-5 L 7.71824,184.61085 c -1.8886626,1.88867 -1.8887624,4.95076 -2.23e-4,6.83949 l 0.697219,0.6975 c 1.888203,1.88896 4.950519,1.88875 6.839148,1.5e-4 l 33.342422,-33.34182 c 1.888644,-1.88861 1.88867,-4.95065 9.7e-5,-6.83927 z"
   id="path1475"
   inkscape:connector-curvature="0"
   sodipodi:nodetypes="sssccscss" /><path
   style="color:#000000;font-style:normal;font-variant:normal;font-weight:normal;font-stretch:normal;font-size:medium;line-height:normal;font-family:sans-serif;font-variant-ligatures:normal;font-variant-position:normal;font-variant-caps:normal;font-variant-numeric:normal;font-variant-alternates:normal;font-feature-settings:normal;text-indent:0;text-align:start;text-decoration:none;text-decoration-line:none;text-decoration-style:solid;text-decoration-color:#000000;letter-spacing:normal;word-spacing:normal;text-transform:none;writing-mode:lr-tb;direction:ltr;text-orientation:mixed;dominant-baseline:auto;baseline-shift:baseline;text-anchor:start;white-space:normal;shape-padding:0;clip-rule:nonzero;display:inline;overflow:visible;visibility:visible;isolation:auto;mix-blend-mode:normal;color-interpolation:sRGB;color-interpolation-filters:linearRGB;solid-color:#000000;solid-opacity:1;vector-effect:none;fill:#0b0c0c;fill-opacity:1;fill-rule:nonzero;stroke:none;stroke-width:15;stroke-linecap:butt;stroke-linejoin:round;stroke-miterlimit:4;stroke-dasharray:none;stroke-dashoffset:0;stroke-opacity:1;color-rendering:auto;image-rendering:auto;shape-rendering:auto;text-rendering:auto;enable-background:accumulate"
   d="m 69.243886,164.88903 -0.697219,-0.69751 c -1.888478,-1.88867 -4.950506,-1.88872 -6.839104,-1.1e-4 l -24.721166,24.7213 c -1.888629,1.88864 -1.88863,4.95068 -5.4e-5,6.83931 l 0.69688,0.6969 c 1.888585,1.88864 4.950658,1.88862 6.839322,0 l 24.72107,-24.72046 c 1.888676,-1.88863 1.888796,-4.95071 2.71e-4,-6.83943 z"
   id="path1473"
   inkscape:connector-curvature="0"
   sodipodi:nodetypes="cccsssssc" /><path
   style="color:#000000;font-style:normal;font-variant:normal;font-weight:normal;font-stretch:normal;font-size:medium;line-height:normal;font-family:sans-serif;font-variant-ligatures:normal;font-variant-position:normal;font-variant-caps:normal;font-variant-numeric:normal;font-variant-alternates:normal;font-feature-settings:normal;text-indent:0;text-align:start;text-decoration:none;text-decoration-line:none;text-decoration-style:solid;text-decoration-color:#000000;letter-spacing:normal;word-spacing:normal;text-transform:none;writing-mode:lr-tb;direction:ltr;text-orientation:mixed;dominant-baseline:auto;baseline-shift:baseline;text-anchor:start;white-space:normal;shape-padding:0;clip-rule:nonzero;display:inline;overflow:visible;visibility:visible;isolation:auto;mix-blend-mode:normal;color-interpolation:sRGB;color-interpolation-filters:linearRGB;solid-color:#000000;solid-opacity:1;vector-effect:none;fill:#0b0c0c;fill-opacity:1;fill-rule:nonzero;stroke:none;stroke-width:15;stroke-linecap:butt;stroke-linejoin:round;stroke-miterlimit:4;stroke-dasharray:none;stroke-dashoffset:0;stroke-opacity:1;color-rendering:auto;image-rendering:auto;shape-rendering:auto;text-rendering:auto;enable-background:accumulate"
   d="m 35.673733,133.31903 -0.696881,-0.6969 c -1.888578,-1.88863 -4.950643,-1.88859 -6.839273,5e-5 L 3.4164176,157.34349 c -1.8885995,1.88861 -1.8885479,4.95065 1.155e-4,6.83914 l 0.697485,0.69724 c 1.8887119,1.88853 4.9507733,1.88841 6.8393899,-2.8e-4 l 24.720324,-24.7212 c 1.888607,-1.88867 1.888586,-4.95072 10e-7,-6.83936 z"
   id="path2054-3"
   inkscape:connector-curvature="0"
   sodipodi:nodetypes="sssscccss" />
</svg>