<?xml version="1.0" standalone="no"?>
<!DOCTYPE svg PUBLIC "-//W3C//DTD SVG 20010904//EN"
 "http://www.w3.org/TR/2001/REC-SVG-20010904/DTD/svg10.dtd">
<svg version="1.0" xmlns="http://www.w3.org/2000/svg"
 width="260.000000pt" height="260.000000pt" viewBox="0 0 260.000000 260.000000"
 preserveAspectRatio="xMidYMid meet">
<metadata>
Created by potrace 1.11, written by Peter Selinger 2001-2013
</metadata>
<g transform="translate(0.000000,260.000000) scale(0.100000,-0.100000)"
fill="#000000" stroke="none">
<path d="M2199 2370 c-87 -28 -152 -66 -406 -235 -41 -27 -98 -64 -126 -82
l-51 -32 -36 39 c-64 70 -126 64 -161 -15 -19 -42 -22 -45 -59 -45 -31 0 -44
-6 -67 -34 -20 -23 -39 -35 -67 -39 -21 -3 -47 -14 -58 -23 -12 -11 -40 -19
-75 -21 -64 -4 -96 -25 -119 -80 -10 -22 -21 -33 -35 -33 -12 0 -67 -11 -123
-24 -55 -14 -139 -32 -186 -41 -47 -9 -107 -22 -135 -30 -27 -8 -84 -21 -125
-30 -41 -8 -102 -21 -135 -29 -33 -8 -89 -19 -125 -26 -36 -6 -69 -16 -74 -20
-6 -6 -3 -24 7 -47 8 -21 18 -50 22 -66 3 -15 15 -37 27 -49 12 -12 34 -47 49
-78 15 -31 39 -70 53 -87 l27 -32 50 15 c28 9 52 14 53 12 2 -2 18 -46 36 -98
18 -52 36 -99 40 -103 12 -14 119 14 159 41 20 14 61 35 91 48 30 12 92 43
136 68 45 25 85 46 88 46 4 0 24 12 46 26 22 15 43 25 46 22 14 -14 18 -178 7
-308 -41 -499 -53 -906 -28 -963 4 -9 16 -17 27 -17 17 0 19 4 13 27 -13 54
-17 304 -6 397 6 53 14 171 17 263 6 183 38 372 77 448 21 41 30 145 14 175
-5 12 0 19 20 28 19 7 20 9 6 6 -37 -9 -26 11 32 62 31 26 53 49 50 52 -2 3
-46 -16 -97 -41 -121 -60 -282 -107 -263 -78 20 33 118 78 238 111 129 36 132
36 156 18 34 -26 55 -23 84 12 14 17 30 30 34 30 5 0 7 16 5 35 -4 32 -2 35
21 35 13 0 30 -7 37 -15 10 -13 10 -19 -5 -35 -10 -11 -13 -20 -8 -20 6 0 20
16 32 35 21 36 51 47 51 19 0 -8 12 -39 26 -68 l26 -53 -51 -53 c-40 -42 -52
-49 -57 -36 -3 9 -11 16 -17 16 -7 0 -7 -4 1 -12 19 -19 15 -41 -8 -35 -16 4
-18 2 -10 -13 8 -15 4 -24 -21 -44 -17 -15 -43 -26 -59 -26 -25 0 -28 -3 -26
-26 2 -15 10 -31 19 -35 14 -9 15 -13 1 -52 -13 -34 -13 -56 -5 -117 19 -138
32 -403 30 -605 -2 -158 1 -218 15 -285 27 -130 20 -120 85 -120 l58 0 6 58
c5 48 -1 88 -38 237 -61 244 -72 368 -56 648 18 311 1 267 165 431 l141 141 5
60 c6 68 -12 59 180 90 95 15 441 94 565 130 28 7 66 17 87 20 23 5 38 13 41
26 6 23 -14 82 -37 108 -19 21 -56 133 -56 172 0 30 -17 49 -45 49 -15 0 -31
21 -65 86 -43 82 -88 135 -113 133 -7 0 -37 -9 -68 -19z m31 -62 c-18 -81 -36
-104 -134 -174 -214 -152 -344 -222 -426 -226 l-55 -3 -3 36 c-3 31 0 37 21
43 13 3 65 35 116 71 51 36 107 73 124 82 18 9 79 47 137 86 83 55 156 93 226
117 1 0 -1 -15 -6 -32z m13 -117 c-3 -11 -51 -50 -106 -87 -56 -38 -120 -82
-142 -100 -90 -71 -286 -167 -304 -148 -3 3 6 8 19 11 54 14 239 115 305 167
39 30 102 77 140 103 39 26 74 54 78 61 12 18 16 15 10 -7z m-701 -153 l29
-31 -29 -13 c-34 -14 -42 -31 -42 -85 0 -36 -2 -39 -27 -40 l-28 -2 27 -4 c21
-3 30 -13 39 -41 6 -20 15 -41 20 -47 5 -5 9 -16 9 -24 0 -11 -4 -11 -19 3
-12 11 -27 15 -40 11 -24 -7 -39 17 -52 84 -8 43 -8 43 -4 -14 14 -178 17
-246 11 -261 -6 -16 -8 -16 -19 -1 -6 9 -28 17 -47 19 -31 3 -35 7 -47 47 -7
24 -13 97 -14 163 -1 101 2 122 17 139 22 25 52 24 80 -2 l23 -22 6 29 c19 83
41 124 67 124 5 0 23 -14 40 -32z m15 -65 c-2 -10 -8 -25 -11 -34 -10 -22 30
-69 57 -68 22 2 22 2 -1 6 -33 6 -56 46 -42 72 6 12 13 21 16 21 2 0 14 -19
25 -42 29 -62 45 -89 51 -83 3 3 13 -4 23 -15 18 -20 18 -21 -4 -51 -17 -23
-21 -39 -17 -62 11 -54 6 -90 -20 -147 -26 -57 -69 -110 -90 -110 -13 0 -54
81 -54 107 0 10 13 52 28 93 l28 75 39 -3 40 -3 -34 18 c-55 29 -75 64 -79
142 -3 53 -1 71 13 84 22 22 39 22 32 0z m-260 -127 c-2 -6 -23 -17 -48 -23
l-44 -13 48 6 47 5 1 -78 c0 -43 6 -112 14 -153 14 -79 11 -102 -9 -75 -17 24
-58 15 -73 -14 l-12 -25 -6 27 c-5 17 -1 34 9 49 21 30 20 59 -3 116 -11 26
-28 75 -39 109 l-19 62 21 19 c12 11 28 22 36 24 20 6 81 -23 77 -36z m832 10
c10 -12 2 -18 -46 -36 -107 -41 -282 -96 -276 -87 10 16 275 135 304 137 4 0
12 -6 18 -14z m-1009 -25 c0 -5 10 -11 22 -13 17 -2 25 -16 39 -68 20 -69 18
-76 -21 -83 -17 -3 -15 -4 7 -3 31 2 32 1 30 -36 -1 -26 -7 -38 -17 -38 -9 0
-26 -7 -38 -16 -22 -15 -23 -14 -37 20 -8 19 -15 47 -15 61 0 19 -5 25 -23 25
-13 0 -27 -4 -32 -9 -6 -5 -44 -14 -87 -20 -42 -6 -92 -20 -111 -31 -19 -11
-94 -40 -168 -64 -74 -24 -156 -54 -184 -66 -39 -17 -81 -23 -205 -30 -172
-10 -176 -9 -182 50 l-3 35 60 9 c33 4 89 17 125 27 36 11 90 23 120 28 30 5
93 19 139 31 46 12 118 28 160 36 42 7 117 22 166 33 50 10 107 22 128 25 20
4 37 11 37 17 0 6 -4 8 -8 5 -16 -10 -6 43 12 63 19 21 86 30 86 12z m695 -61
c-3 -5 -13 -10 -21 -10 -8 0 -12 5 -9 10 3 6 13 10 21 10 8 0 12 -4 9 -10z
m-295 -29 c13 -25 13 -27 -6 -45 -23 -23 -29 -20 -41 19 -8 25 -8 35 1 39 23
9 36 6 46 -13z m-339 -186 c0 -5 -9 -11 -21 -13 -20 -3 -27 8 -13 22 10 9 34
3 34 -9z m-146 -15 c-10 -16 -56 -37 -100 -45 -54 -9 -40 2 37 31 75 27 71 26
63 14z m263 -47 c-3 -32 -44 -46 -54 -19 -10 26 4 46 31 46 23 0 26 -4 23 -27z
m-468 -34 c-35 -17 -67 -33 -70 -37 -3 -4 -29 -22 -58 -39 -49 -30 -295 -104
-341 -102 -20 0 170 68 294 104 32 9 76 31 96 48 38 32 89 55 124 56 11 1 -9
-13 -45 -30z m-560 -55 c7 -16 7 -32 0 -44 -14 -26 -14 -28 23 -46 l32 -17
-43 -19 c-23 -10 -47 -16 -52 -13 -9 6 -80 138 -80 149 0 4 23 8 93 14 10 1
21 -8 27 -24z m539 -66 c-71 -86 -151 -158 -204 -183 -27 -14 -61 -33 -75 -44
-14 -11 -44 -22 -67 -26 -39 -6 -43 -5 -43 13 0 12 9 23 20 27 11 4 29 24 41
46 30 60 86 110 169 152 62 31 145 60 193 66 5 1 -11 -23 -34 -51z"/>
<path d="M1058 1735 c5 -11 12 -27 15 -35 5 -13 6 -13 6 1 1 8 -6 24 -15 35
-15 19 -15 19 -6 -1z"/>
</g>
</svg>
