<?xml version="1.0" encoding="UTF-8" standalone="no"?>
<svg
   xmlns:dc="http://purl.org/dc/elements/1.1/"
   xmlns:cc="http://creativecommons.org/ns#"
   xmlns:rdf="http://www.w3.org/1999/02/22-rdf-syntax-ns#"
   xmlns:svg="http://www.w3.org/2000/svg"
   xmlns="http://www.w3.org/2000/svg"
   xmlns:sodipodi="http://sodipodi.sourceforge.net/DTD/sodipodi-0.dtd"
   xmlns:inkscape="http://www.inkscape.org/namespaces/inkscape"
   width="54.187546mm"
   height="52.30975mm"
   viewBox="0 0 54.187546 52.30975"
   version="1.1"
   id="svg8"
   inkscape:version="1.0.1 (0767f8302a, 2020-10-17)"
   sodipodi:docname="wbf.svg">
  <defs
     id="defs2" />
  <sodipodi:namedview
     id="base"
     pagecolor="#ffffff"
     bordercolor="#666666"
     borderopacity="1.0"
     inkscape:pageopacity="0.0"
     inkscape:pageshadow="2"
     inkscape:zoom="1.979899"
     inkscape:cx="65.68908"
     inkscape:cy="67.745072"
     inkscape:document-units="mm"
     inkscape:current-layer="layer2"
     inkscape:document-rotation="0"
     showgrid="false"
     inkscape:snap-global="false"
     fit-margin-top="0.1"
     fit-margin-left="0.1"
     fit-margin-bottom="0.1"
     fit-margin-right="0.1"
     inkscape:window-width="1515"
     inkscape:window-height="968"
     inkscape:window-x="98"
     inkscape:window-y="65"
     inkscape:window-maximized="0" />
  <metadata
     id="metadata5">
    <rdf:RDF>
      <cc:Work
         rdf:about="">
        <dc:format>image/svg+xml</dc:format>
        <dc:type
           rdf:resource="http://purl.org/dc/dcmitype/StillImage" />
        <dc:title></dc:title>
      </cc:Work>
    </rdf:RDF>
  </metadata>
  <g
     inkscape:groupmode="layer"
     id="layer2"
     inkscape:label="Layer 2"
     style="display:inline"
     transform="translate(-134.19684,-20.762899)">
    <path
       style="fill:#f2f2f2;stroke:none;stroke-width:0.264583px;stroke-linecap:butt;stroke-linejoin:miter;stroke-opacity:1"
       d="m 156.33589,41.152712 -15.18409,11.807568 -6.85496,-5.739365 4.76952,-0.113631 -1.78979,-2.810796 3.82135,-0.149611 -1.19272,-7.368836 11.70673,-0.371078 0.49925,-0.03184 0.16169,2.344354 z"
       id="path56" />
    <path
       style="fill:#f2f2f2;stroke:none;stroke-width:0.264583px;stroke-linecap:butt;stroke-linejoin:miter;stroke-opacity:1"
       d="m 166.2202,28.326556 13.42666,-7.214903 0.33863,5.901657 7.95551,5.186203 -17.17204,3.459967 -1.60548,-1.353896 z"
       id="path883" />
    <path
       style="fill:#7d7d7d;fill-opacity:1;stroke:none;stroke-width:0.265;stroke-linecap:butt;stroke-linejoin:miter;stroke-miterlimit:4;stroke-dasharray:none;stroke-opacity:1"
       d="m 155.02738,72.972649 2.31026,-23.216587 -3.68911,-6.047407 2.36405,-2.50404 -3.66131,-2.649156 -0.48094,-4.577014 2.87874,-1.408634 1.08322,-2.03998 2.1267,-0.207901 1.72794,-2.31139 1.57446,-0.457716 0.46759,-1.519097 3.47419,-0.175635 1.47723,4.013877 3.73652,5.895628 -2.63921,10.080432 1.90804,27.005308 z"
       id="path885" />
  </g>
  <g
     inkscape:label="Layer 1"
     inkscape:groupmode="layer"
     id="layer1"
     transform="translate(-134.19684,-20.762899)">
    <path
       style="fill:none;stroke:#000000;stroke-width:0.264583px;stroke-linecap:butt;stroke-linejoin:miter;stroke-opacity:1"
       d="m 161.18515,27.893183 -2.21991,0.308052 -0.98125,2.300618 0.75878,5.088291 1.29598,1.076513 -1.74183,2.547463 -2.26693,-1.619327 -1.11454,-4.696177 -1.37784,-0.305391 -1.61911,1.898809 0.35437,4.22744 4.06302,2.433239 1.85602,-1.687499 2.07352,-3.290696 2.42364,-1.893043 -1.5106,-4.797899 0.007,-1.59039 -0.15675,-1.728144 2.45001,-0.768483 2.1488,0.621401 0.59267,2.308595 1.03002,1.982852 1.91326,3.996177 1.60548,1.353897 -0.90686,4.738951 -1.76517,3.598986 -0.36362,5.189083 1.78287,23.230594 -14.77975,0.241767 1.71848,-11.7888 0.44228,-11.150209 -3.30754,-5.949419 2.7682,-2.714195"
       id="path24"
       sodipodi:nodetypes="ccccccccccccccccccccccccccccccccc" />
    <path
       style="fill:none;stroke:#000000;stroke-width:0.264583px;stroke-linecap:butt;stroke-linejoin:miter;stroke-opacity:1"
       d="m 152.09391,44.75629 -11.41842,7.626826 -5.35312,-4.927474 3.74399,-0.348357 -1.98553,-1.993349 4.01709,-0.967059 -2.18731,-6.056765 12.11734,-2.139552"
       id="path26"
       sodipodi:nodetypes="cccccccc" />
    <path
       style="fill:none;stroke:#000000;stroke-width:0.264583px;stroke-linecap:butt;stroke-linejoin:miter;stroke-opacity:1"
       d="m 171.51843,35.499601 16.42257,-3.300086 -7.95551,-5.186206 -0.33863,-5.901656 -5.20222,3.761812 -7.38166,3.243474"
       id="path28"
       sodipodi:nodetypes="cccccc" />
    <path
       style="fill:none;stroke:#000000;stroke-width:0.264583px;stroke-linecap:butt;stroke-linejoin:miter;stroke-opacity:1"
       d="m 154.91545,32.898616 0.38457,-2.174033 2.68397,-0.22273"
       id="path39"
       sodipodi:nodetypes="ccc" />
    <path
       style="fill:none;stroke:#000000;stroke-width:0.264583px;stroke-linecap:butt;stroke-linejoin:miter;stroke-opacity:1"
       d="m 168.64041,32.336949 7.08864,-1.552986 4.25644,-3.770654"
       id="path41"
       sodipodi:nodetypes="ccc" />
    <path
       style="fill:none;stroke:#000000;stroke-width:0.264583px;stroke-linecap:butt;stroke-linejoin:miter;stroke-opacity:1"
       d="m 151.84055,39.134186 -8.82542,4.885719"
       id="path45"
       sodipodi:nodetypes="cc" />
  </g>
</svg>
